<svg xmlns="http://www.w3.org/2000/svg" width="26" height="26" viewBox="0 0 26 26" shape-rendering="auto">
<path fill="#FFFFFF" d="M20.15 7.534c.517 0 1.013-.208 1.379-.579.366-.371.571-.874.571-1.399s-.205-1.028-.571-1.399-.862-.579-1.379-.579-1.013.208-1.379.579c-.366.371-.571.874-.571 1.399s.205 1.028.571 1.399.862.579 1.379.579zm-13.65 5.466c0-1.749.685-3.427 1.904-4.663 1.219-1.237 2.872-1.932 4.596-1.932 1.724 0 3.377.695 4.596 1.932 1.219 1.237 1.904 2.914 1.904 4.663s-.685 3.426-1.904 4.663c-1.219 1.237-2.872 1.932-4.596 1.932-1.724 0-3.377-.695-4.596-1.932-1.219-1.237-1.904-2.914-1.904-4.663zm6.5-3.957c-1.034 0-2.026.417-2.758 1.159-.731.742-1.142 1.749-1.142 2.798s.411 2.056 1.142 2.798c.731.742 1.723 1.159 2.758 1.159 1.034 0 2.026-.417 2.758-1.159.731-.742 1.142-1.749 1.142-2.798 0-1.05-.411-2.056-1.142-2.798-.731-.742-1.723-1.159-2.758-1.159zm-7.8-6.407c-.69 0-1.351.278-1.838.772-.488.494-.762 1.165-.762 1.864v15.457c0 .699.274 1.369.762 1.864.488.494 1.149.772 1.838.772h15.6c.69 0 1.351-.278 1.839-.772s.761-1.165.761-1.864v-15.457c0-.699-.274-1.369-.761-1.864-.488-.494-1.149-.772-1.839-.772zm-5.2 2.636c0-1.398.548-2.739 1.523-3.727.975-.989 2.298-1.544 3.677-1.544h15.6c1.379 0 2.702.555 3.677 1.544.975.989 1.523 2.329 1.523 3.727v15.457c0 1.398-.548 2.739-1.523 3.727-.975.989-2.298 1.544-3.677 1.544h-15.6c-1.379 0-2.702-.555-3.677-1.544-.975-.989-1.523-2.329-1.523-3.727z"/>
</svg>