<svg xmlns="http://www.w3.org/2000/svg" width="30" height="32" viewBox="0 0 30 32" shape-rendering="auto">
<path fill="#FFFFFF" d="M15 0a8.006 8.006 0 0 0-8.006 8.006 8.006 8.006 0 0 0 8.006 8.006 8.006 8.006 0 0 0 8.006-8.006 8.006 8.006 0 0 0-8.006-8.006zm0 3.115a4.89 4.89 0 0 1 4.891 4.891 4.89 4.89 0 0 1-4.891 4.891 4.89 4.89 0 0 1-4.891-4.891 4.89 4.89 0 0 1 4.891-4.891zm-3.334 15.291c-6.433 0-11.666 5.041-11.666 11.232v2.361h3.334v-2.361c0-4.424 3.737-8.023 8.332-8.023h6.668c4.595 0 8.332 3.6 8.332 8.023v2.361h3.334v-2.361c0-6.192-5.234-11.232-11.666-11.232h-6.668z"/>
</svg>