<svg xmlns="http://www.w3.org/2000/svg" width="26" height="26" viewBox="0 0 26 26" shape-rendering="auto">
<path fill="#FFFFFF" d="M6.5 0c-1.225 0-2.426.347-3.463 1s-1.869 1.586-2.398 2.691c-.53 1.105-.736 2.337-.596 3.555.14 1.217.621 2.369 1.389 3.324-.167.799-.25 1.615-.25 2.432 0 6.528 5.291 11.818 11.818 11.818.832 0 1.645-.086 2.43-.25 1.249 1.003 2.825 1.507 4.424 1.42 1.599-.088 3.11-.762 4.242-1.895 1.132-1.132 1.807-2.643 1.895-4.242.087-1.599-.419-3.173-1.422-4.422.165-.785.25-1.598.25-2.43 0-6.528-5.291-11.82-11.818-11.82-.832 0-1.645.088-2.43.252-1.153-.929-2.59-1.435-4.07-1.434zm.189 2.369c.202.009.405.033.605.072.802.157 1.537.548 2.117 1.123l.482.477.654-.174c1.604-.431 3.294-.433 4.898-.004 1.604.429 3.068 1.273 4.242 2.447 1.174 1.174 2.018 2.638 2.447 4.242.429 1.604.429 3.294-.002 4.898l-.176.656.479.48c.776.776 1.211 1.829 1.211 2.926 0 1.097-.435 2.148-1.211 2.924-.776.776-1.829 1.213-2.926 1.213-1.097 0-2.15-.437-2.926-1.213l-.48-.477-.656.174c-1.604.431-3.292.433-4.896.004-1.605-.429-3.07-1.273-4.244-2.447-1.175-1.174-2.018-2.638-2.447-4.242-.429-1.605-.429-3.294.002-4.898l.176-.656-.479-.48c-.77-.774-1.199-1.823-1.197-2.914 0-.817.24-1.615.693-2.295.453-.68 1.098-1.209 1.852-1.523.565-.236 1.174-.34 1.781-.313zm6.52 4.146c-1.499 0-2.962.712-3.672 2.086-.241.458-.36.971-.344 1.49.016.519.165 1.025.434 1.467.507.855 1.387 1.465 2.422 1.748l1.836.502c.707.193 1.781.86 1.395 1.758-.234.542-1.06 1.141-2.277 1.141-1.052 0-1.98-.184-2.836-.846-.249-.189-.563-.27-.871-.227-.308.044-.587.21-.775.461-.189.251-.272.568-.232.881.04.313.2.597.445.791 1.146.887 2.336 1.338 4.008 1.338 1.866 0 3.904-.717 4.705-2.578.473-1.097.315-2.246-.273-3.168-.909-1.42-2.47-1.832-3.984-2.229l-.525-.141c-.622-.169-1.347-.663-.977-1.381.157-.303.693-.695 1.523-.695 1.427 0 2.213.565 2.574.846.249.193.564.279.875.236.311-.042.593-.208.783-.461.19-.253.274-.573.232-.889-.042-.315-.206-.6-.455-.793-.579-.448-1.865-1.338-4.01-1.338z"/>
</svg>