<svg xmlns="http://www.w3.org/2000/svg" width="26" height="26" viewBox="0 0 26 26" shape-rendering="auto">
<path fill="#FFFFFF" d="M3.024 13c0-2.028.603-4.01 1.732-5.696s2.735-3 4.613-3.776c1.878-.776 3.945-.979 5.939-.584 1.994.396 3.825 1.372 5.263 2.806 1.437 1.434 2.416 3.261 2.813 5.25.397 1.988.193 4.05-.585 5.923-.778 1.874-2.095 3.475-3.786 4.602-1.69 1.126-3.678 1.727-5.711 1.727-1.945.004-3.85-.546-5.493-1.584-.146-.093-.31-.153-.482-.176-.171-.024-.346-.01-.511.039l-3.483 1.036 1.312-3.06c.076-.178.108-.372.094-.565-.015-.193-.076-.38-.178-.544-1.009-1.621-1.542-3.491-1.538-5.398zm10.279-12.665c-7.013 0-12.697 5.67-12.697 12.665 0 2.217.572 4.304 1.578 6.119l-2.086 4.866c-.09.21-.118.442-.081.669.037.226.138.437.291.608.153.171.352.295.573.357.221.063.455.061.676-.005l5.442-1.619c1.919 1.097 4.093 1.673 6.305 1.67 7.013 0 12.697-5.67 12.697-12.665 0-6.995-5.685-12.665-12.697-12.665zm2.773 15.297l-1.59 1.117c-.876-.503-1.681-1.121-2.392-1.837-.764-.761-1.424-1.618-1.964-2.55l1.01-.855c.21-.178.353-.423.405-.693.052-.271.009-.55-.12-.793l-1.287-2.413c-.086-.16-.206-.299-.353-.406-.147-.107-.316-.18-.495-.213s-.363-.025-.539.023c-.176.049-.338.135-.475.255l-.382.332c-.918.798-1.461 2.11-1.011 3.44.724 2.102 1.921 4.011 3.501 5.579 2.192 2.187 4.42 3.048 5.723 3.384 1.05.269 2.042-.092 2.743-.661l.715-.582c.151-.122.269-.279.346-.457.077-.178.11-.372.095-.566-.014-.193-.075-.38-.177-.545-.102-.165-.243-.303-.41-.402l-2.029-1.207c-.201-.119-.432-.178-.665-.169-.234.009-.459.085-.651.219z"/>
</svg>